<svg width="93" height="24" viewBox="0 0 93 24" fill="none" xmlns="http://www.w3.org/2000/svg">
<path fill-rule="evenodd" clip-rule="evenodd" d="M88.6826 11.3207C86.682 11.3207 85.0595 12.9423 85.0595 14.943C85.0595 16.9436 86.682 18.566 88.6826 18.566C90.6832 18.566 92.3048 16.9436 92.3048 14.943C92.3048 12.9423 90.6832 11.3207 88.6826 11.3207Z" fill="#262324"/>
<mask id="mask0" mask-type="alpha" maskUnits="userSpaceOnUse" x="0" y="0" width="22" height="24">
<path fill-rule="evenodd" clip-rule="evenodd" d="M0.380859 0.000305176H21.6686V24H0.380859V0.000305176Z" fill="white"/>
</mask>
<g mask="url(#mask0)">
<path fill-rule="evenodd" clip-rule="evenodd" d="M12.8363 15.7799C10.4437 15.7799 9.00163 12.784 8.82524 10.0331C8.64884 7.28058 9.35358 3.34375 12.1684 3.34375C15.3 3.34375 16.1795 6.89741 16.391 9.37024C16.6025 11.8431 16.0741 15.7799 12.8363 15.7799ZM13.6105 0.000305176C10.8316 0.000305176 8.86035 1.88141 7.87471 4.66789C7.21929 4.24913 6.89743 3.47037 7.0663 2.71644L7.62893 0.209684H0.380859C0.380859 1.20775 0.89416 2.13713 1.74269 2.67589L3.51249 3.79727V16.7838C3.51249 19.0638 2.32956 21.1832 0.380859 22.3981V24.0003H11.7111C11.7111 23.0047 11.1878 22.0811 10.33 21.5622L8.54351 20.4822L8.5084 14.9084C9.63448 16.9998 11.4636 18.3918 13.9281 18.3918C18.185 18.3918 21.6686 14.282 21.6686 9.19644C21.6686 4.10927 17.9744 0.000305176 13.6105 0.000305176Z" fill="#262324"/>
</g>
<path fill-rule="evenodd" clip-rule="evenodd" d="M70.525 6.33015C70.9151 4.25491 71.9439 2.67258 73.8582 2.67258C76.0219 2.67258 77.2276 4.7119 77.6178 6.33015H70.525ZM74.2837 0C69.2485 0 65.135 4.14964 65.135 9.28344C65.135 14.4181 69.2485 18.566 74.2837 18.566C78.6466 18.566 81.5197 15.5777 82.4424 13.4682C81.5122 12.9527 80.378 13.078 79.5414 13.7313C78.7948 14.3153 77.7576 14.7698 76.3767 14.7698C72.5101 14.7698 70.5966 11.9552 70.4188 9.70534C70.3834 9.3887 70.3834 9.10799 70.3472 8.79053H82.7954V8.33437C82.7954 3.58739 79.0013 0 74.2837 0Z" fill="#262324"/>
<path fill-rule="evenodd" clip-rule="evenodd" d="M58.5035 13.714C57.6729 14.2411 56.6695 14.6288 55.5954 14.6288C52.0992 14.6288 50.2989 11.6397 50.2989 8.51027C50.2989 5.0283 52.2727 2.53128 54.9029 2.53128C56.3232 2.53128 57.2912 3.09434 57.9837 4.04419C58.6417 4.92304 59.0225 6.15359 59.2996 7.5955H61.2727V0.211357C58.5381 0.914768 57.4993 0 54.0377 0C49.33 0 45.2104 4.14946 45.2104 9.28302C45.2104 14.4174 48.8111 18.566 54.4185 18.566C58.7108 18.566 61.4108 14.4876 61.9652 12.4826L60.4066 11.78C59.9921 12.4475 59.3342 13.186 58.5035 13.714Z" fill="#262324"/>
<path fill-rule="evenodd" clip-rule="evenodd" d="M31.7061 15.4725C30.3645 15.4725 29.4363 14.3823 29.402 13.0465C29.3677 11.6397 30.2607 10.0934 32.0501 9.67065C33.3917 9.35403 34.5944 9.10842 35.6264 8.93215C35.6264 14.2762 33.2879 15.4725 31.7061 15.4725ZM42.1041 15.8075L40.51 14.663V6.92718C40.51 1.12613 36.039 0 33.3917 0C30.295 0 29.2304 0.703411 25.5152 0.351705V6.857H26.8217C29.1961 6.857 28.9894 2.49703 32.2911 2.49703C34.8012 2.49703 35.6264 4.21963 35.6264 6.57631V6.68157C34.2848 6.92718 32.4627 7.2438 30.4331 7.63059C26.6844 8.36909 24.3803 10.1978 24.3803 13.6096C24.3803 16.5277 26.856 18.566 30.1921 18.566C33.185 18.566 35.2824 16.8434 36.4868 13.8894C37.1502 14.2604 37.4746 15.0515 37.2679 15.795L36.5554 18.3555H43.3991C43.3991 17.3413 42.9154 16.3915 42.1041 15.8075Z" fill="#262324"/>
</svg>
